<?xml version="1.0" standalone="no"?><!DOCTYPE svg PUBLIC "-//W3C//DTD SVG 1.1//EN" "http://www.w3.org/Graphics/SVG/1.1/DTD/svg11.dtd"><svg t="1599637332007" class="icon" viewBox="0 0 1024 1024" version="1.1" xmlns="http://www.w3.org/2000/svg" p-id="1075" xmlns:xlink="http://www.w3.org/1999/xlink" width="128" height="128"><defs><style type="text/css"></style></defs><path d="M345.6 729.6h-12.8C170.666667 729.6 0 682.666667 0 601.6c0-12.8 8.533333-21.333333 21.333333-21.333333s21.333333 8.533333 21.333334 21.333333c0 34.133333 115.2 81.066667 294.4 81.066667h21.333333c12.8 0 21.333333 8.533333 21.333333 21.333333s-8.533333 21.333333-21.333333 21.333333c-4.266667 4.266667-8.533333 4.266667-12.8 4.266667zM349.866667 601.6H337.066667C170.666667 601.6 0 554.666667 0 473.6c0-12.8 8.533333-21.333333 21.333333-21.333333s21.333333 8.533333 21.333334 21.333333c0 34.133333 115.2 81.066667 294.4 81.066667h29.866666c12.8 0 21.333333 8.533333 21.333334 21.333333s-8.533333 21.333333-21.333334 21.333333c-8.533333 4.266667-12.8 4.266667-17.066666 4.266667zM337.066667 473.6c-166.4 0-337.066667-42.666667-337.066667-128 0-12.8 8.533333-21.333333 21.333333-21.333333s21.333333 8.533333 21.333334 21.333333C42.666667 379.733333 157.866667 426.666667 337.066667 426.666667s294.4-51.2 294.4-81.066667c0-12.8 8.533333-21.333333 21.333333-21.333333s21.333333 8.533333 21.333333 21.333333c-4.266667 85.333333-170.666667 128-337.066666 128z" p-id="1076" fill="#5e72e4"></path><path d="M345.6 853.333333h-12.8C170.666667 853.333333 0 810.666667 0 729.6V213.333333c0-12.8 8.533333-21.333333 21.333333-21.333333s21.333333 8.533333 21.333334 21.333333v516.266667c0 34.133333 115.2 81.066667 294.4 81.066667h21.333333c12.8 0 21.333333 8.533333 21.333333 21.333333s-8.533333 21.333333-21.333333 21.333333h-12.8zM648.533333 512c-12.8 0-21.333333-8.533333-21.333333-21.333333V213.333333c0-12.8 8.533333-21.333333 21.333333-21.333333s21.333333 8.533333 21.333334 21.333333v277.333334c0 12.8-8.533333 21.333333-21.333334 21.333333z" p-id="1077" fill="#5e72e4"></path><path d="M337.066667 337.066667C170.666667 337.066667 0 294.4 0 213.333333s170.666667-128 337.066667-128c166.4 0 337.066667 42.666667 337.066666 123.733334s-170.666667 128-337.066666 128z m0-209.066667C157.866667 128 42.666667 179.2 42.666667 213.333333s115.2 81.066667 294.4 81.066667 294.4-51.2 294.4-81.066667-115.2-85.333333-294.4-85.333333zM678.4 857.6c-170.666667 0-341.333333-42.666667-341.333333-123.733333 0-12.8 8.533333-21.333333 21.333333-21.333334s21.333333 8.533333 21.333333 21.333334c0 34.133333 115.2 81.066667 298.666667 81.066666s298.666667-46.933333 298.666667-81.066666c0-12.8 8.533333-21.333333 21.333333-21.333334s21.333333 8.533333 21.333333 21.333334c0 81.066667-170.666667 123.733333-341.333333 123.733333z" p-id="1078" fill="#5e72e4"></path><path d="M678.4 981.333333c-170.666667 0-341.333333-42.666667-341.333333-123.733333v-251.733333c0-12.8 8.533333-21.333333 21.333333-21.333334s21.333333 8.533333 21.333333 21.333334v251.733333c0 34.133333 115.2 81.066667 298.666667 81.066667s298.666667-46.933333 298.666667-81.066667v-251.733333c0-12.8 8.533333-21.333333 21.333333-21.333334s21.333333 8.533333 21.333333 21.333334v251.733333c0 81.066667-170.666667 123.733333-341.333333 123.733333z" p-id="1079" fill="#5e72e4"></path><path d="M678.4 725.333333c-170.666667 0-341.333333-42.666667-341.333333-128s170.666667-128 341.333333-128 341.333333 42.666667 341.333333 128-170.666667 128-341.333333 128z m0-213.333333c-183.466667 0-298.666667 51.2-298.666667 85.333333s115.2 85.333333 298.666667 85.333334 298.666667-51.2 298.666667-85.333334-115.2-85.333333-298.666667-85.333333z" p-id="1080" fill="#5e72e4"></path></svg>